<svg width="177" height="45" viewBox="0 0 177 45" fill="none" xmlns="http://www.w3.org/2000/svg">
<path d="M53.8964 7.85538H58.7861C61.4853 7.85538 62.5805 9.27041 62.5805 10.826C62.5805 12.1586 61.8536 13.0164 61.0298 13.3556C61.8245 13.6415 62.9342 14.4702 62.9342 16.0548C62.9342 18.1289 61.3157 19.5294 58.9363 19.5294H53.8916V7.85538H53.8964ZM58.505 12.5415C59.8716 12.5415 60.4095 11.9696 60.4095 11.0392C60.4095 10.1136 59.7359 9.57087 58.6213 9.57087H56.0578V12.5415H58.505ZM56.0578 17.8042H58.5389C59.9394 17.8042 60.7002 17.1985 60.7002 16.0015C60.7002 14.9548 60.0072 14.2666 58.4226 14.2666H56.0626V17.8042H56.0578Z" fill="white"/>
<path d="M71.4396 16.9949C71.4396 17.8381 71.4396 18.8316 71.459 19.5246H69.4188C69.3849 19.2871 69.3704 18.7977 69.351 18.4294C68.8616 19.321 68.0668 19.7281 66.8892 19.7281C65.2174 19.7281 64.0059 18.7686 64.0059 16.5249V10.8599H66.0993V16.1033C66.0993 17.1161 66.4046 17.9932 67.5822 17.9932C68.847 17.9932 69.3558 17.3002 69.3558 15.4491V10.8599H71.4493V16.9949H71.4396Z" fill="white"/>
<path d="M80.3948 16.7769C80.075 18.2258 79.0621 19.7281 76.6004 19.7281C74.0029 19.7281 72.5879 17.906 72.5879 15.2407C72.5879 12.7256 74.0902 10.6515 76.7215 10.6515C79.4886 10.6515 80.3318 12.6432 80.3996 13.6706H78.3401C78.1705 12.8952 77.715 12.3234 76.6682 12.3234C75.418 12.3234 74.7298 13.4041 74.7298 15.1729C74.7298 17.0628 75.4373 18.0756 76.6537 18.0756C77.5647 18.0756 78.0687 17.5522 78.3256 16.7769H80.3948Z" fill="white"/>
<path d="M83.4333 14.6689C84.1069 13.8063 85.5074 12.241 86.7044 10.8551H89.1322L86.0308 14.16L89.4375 19.5246H87.0436L84.6157 15.5121L83.4333 16.6412V19.5246H81.3398V7.19632H83.4333V14.6689Z" fill="white"/>
<path d="M89.7715 7.19632H91.865V9.2365H89.7715V7.19632ZM89.7715 10.8551H91.865V19.5246H89.7715V10.8551Z" fill="white"/>
<path d="M93.5174 13.0309C93.5174 12.2895 93.5174 11.5141 93.498 10.8551H95.5237C95.5721 11.0925 95.6061 11.8 95.6061 12.0714C95.9114 11.4656 96.6189 10.6564 98.189 10.6564C99.8948 10.6564 101.072 11.7709 101.072 13.9953V19.5294H98.9789V14.2327C98.9789 13.1521 98.5912 12.3767 97.4427 12.3767C96.2118 12.3767 95.6061 13.1714 95.6061 14.7706V19.5294H93.5126V13.0309H93.5174Z" fill="white"/>
<path d="M110.333 18.5651C110.333 21.3467 109.253 23.0524 106.132 23.0524C103.147 23.0524 102.454 21.3806 102.352 20.3387H104.479C104.683 21.0462 105.24 21.4872 106.214 21.4872C107.92 21.4872 108.274 20.4405 108.274 18.6377V18.1338C107.818 18.9576 107.077 19.447 105.744 19.447C103.52 19.447 102.153 17.6249 102.153 15.2116C102.153 12.4639 103.791 10.6564 105.933 10.6564C107.484 10.6564 108.128 11.3833 108.279 11.8388C108.298 11.5529 108.347 11.015 108.361 10.8599H110.353C110.338 11.5335 110.338 12.5124 110.338 13.3556V18.5651H110.333ZM106.321 17.7364C107.906 17.7364 108.347 16.6412 108.347 15.0372C108.347 13.3992 108.007 12.3573 106.374 12.3573C105.143 12.3573 104.315 13.3362 104.315 15.1244C104.315 16.7284 105.138 17.7364 106.321 17.7364Z" fill="white"/>
<path d="M114.026 7.19632V11.9696C114.428 11.33 115.155 10.6564 116.59 10.6564C118.126 10.6564 119.492 11.548 119.492 13.9807V19.5294H117.418V14.3006C117.418 13.0503 116.948 12.3767 115.848 12.3767C114.433 12.3767 114.026 13.3895 114.026 14.8724V19.5294H111.933V7.20117H114.026V7.19632Z" fill="white"/>
<path d="M127.978 17.402C127.978 18.2113 128.046 19.3065 128.095 19.5246H126.088C126.02 19.3404 125.972 18.8994 125.953 18.5796C125.647 19.103 125.022 19.7281 123.438 19.7281C121.363 19.7281 120.486 18.3615 120.486 17.0289C120.486 15.0711 122.056 14.16 124.601 14.16H125.914V13.5688C125.914 12.8952 125.696 12.1877 124.397 12.1877C123.249 12.1877 123.016 12.7111 122.895 13.3507H120.889C121.005 11.9357 121.901 10.637 124.479 10.6515C126.738 10.6661 127.973 11.5626 127.973 13.5882V17.402H127.978ZM125.938 15.4781H124.804C123.268 15.4781 122.594 15.9337 122.594 16.9126C122.594 17.6201 123.064 18.1968 123.995 18.1968C125.715 18.1968 125.933 17.0143 125.933 15.735V15.4781H125.938Z" fill="white"/>
<path d="M129.611 13.0842C129.611 12.3428 129.611 11.582 129.592 10.8599H131.598C131.632 11.078 131.666 11.6207 131.685 11.989C132.107 11.296 132.834 10.6564 134.132 10.6564C135.363 10.6564 136.105 11.296 136.425 12.0569C136.914 11.3154 137.689 10.6564 139.124 10.6564C140.607 10.6564 141.872 11.548 141.872 13.845V19.5294H139.812V14.097C139.812 13.2344 139.507 12.3622 138.397 12.3622C137.248 12.3622 136.778 13.1714 136.778 14.5719V19.5294H134.719V14.1649C134.719 13.2054 134.467 12.3767 133.338 12.3767C132.209 12.3767 131.685 13.1521 131.685 14.7028V19.5294H129.611V13.0842Z" fill="white"/>
<path d="M144.794 16.961C144.997 17.7364 145.603 18.1774 146.597 18.1774C147.609 18.1774 147.997 17.7897 147.997 17.1839C147.997 16.5249 147.609 16.2535 146.243 15.9191C143.529 15.2601 143.054 14.4169 143.054 13.2199C143.054 11.9551 143.946 10.6564 146.427 10.6564C148.923 10.6564 149.834 12.0375 149.921 13.2393H147.915C147.832 12.8322 147.542 12.1586 146.345 12.1586C145.4 12.1586 145.114 12.5996 145.114 13.0503C145.114 13.5397 145.419 13.7917 146.883 14.1455C149.684 14.7852 150.139 15.7495 150.139 17.0289C150.139 18.4778 149.01 19.7281 146.529 19.7281C144.014 19.7281 142.938 18.4972 142.734 16.961H144.794Z" fill="white"/>
<path d="M153.158 7.19632V11.9696C153.56 11.33 154.287 10.6564 155.721 10.6564C157.258 10.6564 158.624 11.548 158.624 13.9807V19.5294H156.55V14.3006C156.55 13.0503 156.08 12.3767 154.98 12.3767C153.56 12.3767 153.158 13.3895 153.158 14.8724V19.5294H151.064V7.20117H153.158V7.19632Z" fill="white"/>
<path d="M160.242 7.19632H162.336V9.2365H160.242V7.19632ZM160.242 10.8551H162.336V19.5246H160.242V10.8551Z" fill="white"/>
<path d="M163.97 13.2005C163.97 12.2216 163.97 11.4947 163.95 10.8551H166.01C166.044 11.0586 166.058 11.8679 166.058 12.4591C166.465 11.4123 167.425 10.6709 168.893 10.6564V12.682C167.139 12.6626 166.058 13.2877 166.058 15.5993V19.5294H163.965V13.2005H163.97Z" fill="white"/>
<path d="M171.122 15.6284C171.122 16.9271 171.781 18.0562 173.079 18.0562C174.194 18.0562 174.548 17.5474 174.785 16.9949H176.893C176.573 18.0756 175.628 19.7281 173.012 19.7281C170.211 19.7281 169.014 17.5668 169.014 15.3085C169.014 12.6287 170.38 10.6515 173.113 10.6515C176.031 10.6515 177.01 12.8274 177.01 14.8869C177.01 15.1728 177.01 15.3764 176.976 15.6284H171.122ZM174.897 14.2957C174.877 13.1327 174.373 12.1877 173.094 12.1877C171.81 12.1877 171.291 13.0648 171.17 14.2957H174.897Z" fill="white"/>
<path d="M63.5792 34.1013C63.0898 36.2094 61.5051 37.7455 58.6896 37.7455C55.0648 37.7455 53.3105 35.1287 53.3105 31.8092C53.3105 28.6205 55.0987 25.7517 58.7914 25.7517C61.762 25.7517 63.2594 27.4865 63.5792 29.4443H61.3888C61.0835 28.417 60.376 27.5059 58.7042 27.5059C56.4605 27.5059 55.5688 29.5316 55.5688 31.7413C55.5688 33.8154 56.3781 36.0107 58.772 36.0107C60.4778 36.0107 61.0835 34.93 61.3888 34.1062H63.5792V34.1013Z" fill="white"/>
<path d="M72.6217 33.2388C72.6217 35.8217 71.1049 37.794 68.3863 37.794C65.7549 37.794 64.2188 35.8701 64.2188 33.2727C64.2188 30.6413 65.7889 28.7174 68.4881 28.7174C71.0032 28.7174 72.6217 30.525 72.6217 33.2388ZM66.3461 33.2533C66.3461 35.0076 67.1409 36.1221 68.4396 36.1221C69.7529 36.1221 70.4798 35.0269 70.4798 33.2727C70.4798 31.4021 69.7529 30.3893 68.4057 30.3893C67.1215 30.3893 66.3461 31.3682 66.3461 33.2533Z" fill="white"/>
<path d="M81.1222 35.0608C81.1222 35.904 81.1222 36.8975 81.1416 37.5905H79.1015C79.0675 37.353 79.053 36.8636 79.0336 36.4953C78.5442 37.3869 77.7494 37.794 76.5719 37.794C74.9 37.794 73.6885 36.8345 73.6885 34.5908V28.921H75.782V34.1692C75.782 35.182 76.0872 36.0591 77.2648 36.0591C78.5296 36.0591 79.0385 35.3661 79.0385 33.5101V28.921H81.1319V35.0608H81.1222Z" fill="white"/>
<path d="M82.7743 31.0968C82.7743 30.3554 82.7743 29.58 82.7549 28.921H84.7805C84.829 29.1584 84.8629 29.8659 84.8629 30.1373C85.1682 29.5316 85.8757 28.7174 87.4458 28.7174C89.1516 28.7174 90.3292 29.832 90.3292 32.0563V37.5905H88.2357V32.2938C88.2357 31.2131 87.848 30.4378 86.6995 30.4378C85.4686 30.4378 84.8629 31.2325 84.8629 32.8317V37.5905H82.7694V31.0968H82.7743Z" fill="white"/>
<path d="M99.2171 34.8428C98.8972 36.2918 97.8844 37.794 95.4226 37.794C92.8252 37.794 91.4102 35.9719 91.4102 33.3066C91.4102 30.7915 92.9124 28.7174 95.5438 28.7174C98.3109 28.7174 99.1541 30.7092 99.2219 31.7365H97.1624C96.9928 30.9611 96.5372 30.3845 95.4905 30.3845C94.2402 30.3845 93.5521 31.4651 93.5521 33.2339C93.5521 35.1239 94.2596 36.1367 95.476 36.1367C96.387 36.1367 96.891 35.6133 97.1478 34.8379H99.2171V34.8428Z" fill="white"/>
<path d="M100.215 25.2622H102.308V27.3024H100.215V25.2622ZM100.215 28.921H102.308V37.5904H100.215V28.921Z" fill="white"/>
<path d="M106.036 25.2622H103.942V37.5904H106.036V25.2622Z" fill="white"/>
<path d="M22.5 0C10.1815 0 0.038768 10.1136 0 22.4273L1.18242 22.4322C1.23088 11.3493 9.83739 2.29216 20.7361 1.52649C21.3176 1.47803 21.9088 1.4538 22.5 1.4538C34.1256 1.4538 43.551 10.8793 43.551 22.5048C43.551 29.3426 40.2897 35.4146 35.245 39.2575C32.6815 41.2104 29.6527 42.5867 26.3574 43.1973C25.5869 43.3427 24.8018 43.4444 24.0023 43.4977C23.508 43.5317 23.0088 43.5511 22.5048 43.5511C22.5 43.5511 22.4951 43.5511 22.4855 43.5511V43.5704V43.5801C21.8652 43.5656 20.9057 43.4784 20.896 43.0083C20.8863 42.6206 21.1819 42.3056 21.4678 42.0827C21.8506 41.7823 22.3013 41.569 22.7471 41.38C23.1736 41.1959 23.6097 41.0311 24.0507 40.876C24.1913 40.8276 24.3318 40.7694 24.4384 40.6725C24.6032 40.5223 24.6613 40.2703 24.5499 40.0716C24.4239 39.839 24.1573 39.7033 23.9247 39.6015C22.9797 39.1993 18.376 39.2817 17.7994 39.2914H17.7412C17.7606 39.2963 23.0185 39.8826 23.0234 40.2025C23.0331 40.5271 19.2629 41.2637 19.195 43.6044C19.1756 44.2392 19.8686 44.4379 20.1352 44.5299C21.0607 44.8449 21.4726 44.9758 22.4322 45H22.4855H22.5048H22.9798C23.3141 45 23.6437 44.9855 23.9683 44.9661C24.3803 44.9418 24.7825 44.8934 25.1847 44.8401C36.282 43.4977 45.0048 33.9414 45.0048 22.5048C45 10.1572 34.8428 0 22.5 0Z" fill="white"/>
<path d="M21.4528 30.9369L22.1845 30.5977C22.1845 30.5977 14.3534 22.3013 1.15288 24.3366L0.0673828 24.4578C0.576213 29.0324 2.471 33.3405 5.5046 36.8005C8.5382 40.2606 12.5555 42.7127 17.0235 43.8176L17.3725 42.4122C9.56555 40.4884 3.59527 34.2612 1.88463 26.5561C4.15741 26.057 11.785 25.0538 21.4528 30.9369Z" fill="white"/>
<path d="M42.2525 20.4308C42.2137 20.3678 42.2088 20.2272 42.2476 20.1788C42.3833 20.014 42.3494 19.8686 42.2379 19.7281C42.1313 19.5972 42.0538 19.4616 42.0635 19.2774C42.0683 19.2096 42.0198 19.0981 41.9665 19.0739C41.7775 18.977 41.7824 18.8122 41.7872 18.6329C41.7921 18.5117 41.7436 18.3809 41.7679 18.2646C41.8405 17.906 41.4335 17.9254 41.3608 17.6782C41.3511 17.6443 41.2833 17.6298 41.2396 17.6104C41.2299 17.6055 41.2106 17.6104 41.2009 17.6055C41.0313 17.528 40.8568 17.465 40.692 17.3681C40.5757 17.3002 40.4837 17.1985 40.3771 17.1112C40.2317 16.7623 40.2171 16.7526 39.9361 16.7672C39.7519 16.4134 39.6017 16.7381 39.4321 16.8059C39.3982 16.7575 39.3788 16.6896 39.3352 16.6654C39.2043 16.5879 39.1898 16.3262 38.9911 16.3795C38.8215 16.4231 38.7003 16.4183 38.6276 16.2341C38.6131 16.2002 38.5646 16.176 38.5307 16.1566C38.3853 16.0742 38.24 15.9967 38.0558 15.8949C37.7941 15.9773 37.4791 16.0694 37.2271 16.1517C37.0769 16.1469 36.9315 16.0984 36.8928 16.142C36.7232 16.3504 36.5778 16.5782 36.4421 16.8108C36.3452 16.9707 36.0447 17.0289 35.9284 16.9029C35.8218 16.9513 35.7249 17.024 35.6231 17.0385C35.4923 17.0579 35.4535 17.1258 35.4002 17.2421C35.3324 17.3972 35.2403 17.6007 35.1094 17.6491C34.8381 17.7558 34.8768 18.0756 34.6685 18.2307C34.6006 18.2791 34.5764 18.3857 34.5473 18.4972C34.5861 18.5166 34.6394 18.5311 34.6442 18.5553C34.7121 18.8025 35.1191 18.7831 35.0513 19.1417C35.0271 19.258 35.0707 19.3889 35.0707 19.51C35.0658 19.6893 35.061 19.8541 35.2548 19.951C35.3081 19.9801 35.3566 20.0867 35.3517 20.1545C35.3421 20.3387 35.4244 20.4695 35.5262 20.6004C35.6377 20.7409 35.6716 20.8863 35.5359 21.051C35.4971 21.0995 35.502 21.24 35.5407 21.303C35.6619 21.5066 35.817 21.6907 35.6086 21.9427C35.5698 21.9912 35.5892 22.0978 35.5795 22.1899C35.4147 22.1559 35.3566 22.2432 35.3566 22.4031C35.3566 22.4467 35.3227 22.5145 35.2887 22.5291C35.0707 22.6212 35.0998 22.8247 35.0804 23.0088C35.0707 23.0815 35.0416 23.1833 34.998 23.2124C35.1046 23.3481 35.2597 23.4934 35.4874 23.3481C35.5214 23.3238 35.6522 23.3771 35.6667 23.4159C35.7346 23.6727 36.4421 24.2446 36.665 24.2349C37.0091 24.2203 37.3435 24.012 37.6972 24.1622C37.6778 24.8261 37.6439 25.8001 37.6003 26.2363C37.5664 26.59 37.4937 26.8759 37.4113 27.1085C35.6522 27.0407 33.5393 27.1425 31.3586 27.661C31.3005 27.5205 31.2617 27.3605 31.2423 27.1764C31.1987 26.6966 31.1745 25.5869 31.16 24.9521C31.1987 24.9521 31.2472 24.9375 31.2908 24.9327C31.3877 24.9278 31.9014 24.9618 32.0758 24.86C32.1146 24.9375 32.1388 24.9908 32.1485 25.0054C32.2794 25.0248 32.4005 25.0005 32.4635 25.0587C32.5701 25.1508 32.6331 25.1411 32.7301 25.0587C32.7882 25.0102 32.8803 24.9957 32.953 24.9618C33.016 24.9375 33.1177 24.923 33.1323 24.8745C33.2001 24.6516 33.4182 24.6468 33.5539 24.5353C33.6363 24.4675 33.7041 24.3803 33.7768 24.3027C33.8107 24.2688 33.8349 24.2203 33.8786 24.2009C34.1693 24.0798 34.3195 23.8714 34.2856 23.5322C34.2711 23.3917 34.305 23.2802 34.4504 23.2172C34.4552 23.2172 34.4552 23.2124 34.4601 23.2124C34.5037 23.1784 34.5328 23.0767 34.5425 23.0088C34.5667 22.8247 34.5376 22.6212 34.7508 22.5291C34.7848 22.5145 34.8187 22.4467 34.8187 22.4031C34.8187 22.2432 34.8768 22.1608 35.0416 22.1899C35.0513 22.0929 35.0319 21.9912 35.0707 21.9427C35.2742 21.6956 35.1191 21.5114 34.998 21.303C34.9592 21.24 34.9544 21.0995 34.9931 21.051C35.1288 20.8863 35.0949 20.7409 34.9834 20.6004C34.8817 20.4695 34.7993 20.3387 34.809 20.1545C34.8138 20.0867 34.7654 19.9752 34.7072 19.951C34.5182 19.8541 34.5231 19.6893 34.5279 19.51C34.5279 19.3889 34.4843 19.258 34.5085 19.1417C34.5764 18.7831 34.1742 18.8025 34.1015 18.5553C34.0918 18.5263 34.0433 18.5117 34.0046 18.4972C33.9997 18.4924 33.99 18.4924 33.9852 18.4875C33.9755 18.4827 33.9561 18.4875 33.9464 18.4827C33.7768 18.4051 33.6023 18.3421 33.4376 18.2452C33.3213 18.1774 33.2292 18.0756 33.1226 17.9884C32.9772 17.6395 32.9627 17.6298 32.6816 17.6443C32.4974 17.2905 32.3472 17.6152 32.1776 17.6831C32.1437 17.6346 32.1243 17.5668 32.0807 17.5425C31.9499 17.465 31.9402 17.2033 31.7415 17.2566C31.5719 17.3002 31.4507 17.2954 31.378 17.1112C31.3635 17.0773 31.315 17.0531 31.2811 17.0337C31.1357 16.9513 30.9855 16.8738 30.8062 16.772C30.5445 16.8544 30.2295 16.9465 29.9775 17.0289C29.8273 17.024 29.6819 16.9756 29.6432 17.0192C29.4735 17.2276 29.3282 17.4553 29.1925 17.6879C29.0956 17.8478 28.7903 17.906 28.6788 17.78C28.5722 17.8284 28.4753 17.9011 28.3735 17.9157C28.2427 17.9351 28.2039 18.0029 28.1506 18.1192C28.0827 18.2743 27.9907 18.4778 27.8598 18.5263C27.5885 18.6329 27.6224 18.9527 27.4188 19.1078C27.3025 19.195 27.3074 19.4422 27.225 19.5972C27.1717 19.699 27.0748 19.7862 26.9779 19.8347C26.7986 19.9219 26.7501 19.9946 26.8179 20.1982C26.8373 20.266 26.8761 20.3338 26.8712 20.3968C26.8422 20.6198 26.7889 20.8427 26.7598 21.0656C26.7549 21.0801 26.7549 21.0995 26.7549 21.114C26.7016 21.4775 26.6483 21.8409 26.6193 22.2044C26.6096 22.3449 26.6532 22.4952 26.6919 22.6357C26.7549 22.8635 26.9003 23.4207 27.0166 23.4207C27.1862 23.4207 27.3268 23.445 27.2347 23.7018C27.4528 23.7212 27.5642 23.8424 27.6951 24.0023C27.8065 24.1428 27.9713 24.4142 28.2572 24.23C28.2766 24.2203 28.3153 24.2252 28.3541 24.2397C28.3929 24.2543 28.4317 24.2785 28.4365 24.2979C28.5043 24.5547 29.2119 25.1265 29.4348 25.1168C29.6819 25.1072 30.3119 24.9957 30.7432 24.9521C30.7238 25.6063 30.6899 26.7306 30.6414 27.2103C30.6172 27.472 30.5687 27.6949 30.5154 27.8888C29.8515 28.0826 29.1925 28.3152 28.5334 28.6011C27.3025 29.1342 25.9941 29.7448 24.6857 30.3796C24.5985 30.1955 24.5064 29.8902 24.4579 29.3716C24.4192 28.9597 24.3949 27.9808 24.3852 27.4623C24.4773 27.4575 24.9135 27.4865 25.0588 27.3993C25.0928 27.4623 25.117 27.5059 25.1218 27.5253C25.2333 27.5398 25.3399 27.5205 25.3932 27.5689C25.4853 27.6465 25.5386 27.6368 25.6258 27.5689C25.6791 27.5253 25.7567 27.5156 25.8197 27.4865C25.873 27.4672 25.965 27.4526 25.9747 27.4138C26.0377 27.2297 26.2219 27.2249 26.3382 27.1279C26.406 27.0698 26.4642 26.9971 26.532 26.9341C26.5611 26.905 26.5853 26.8614 26.6193 26.8517C26.8712 26.7499 27.0021 26.5755 26.973 26.2944C26.9585 26.1781 26.9875 26.086 27.1135 26.0327C27.1572 26.0133 27.1814 25.9164 27.1911 25.8534C27.2105 25.6984 27.1862 25.5288 27.3704 25.4512C27.3995 25.4367 27.4285 25.3785 27.4285 25.3446C27.4285 25.2089 27.477 25.1411 27.6224 25.1701C27.6321 25.0878 27.6127 25.0054 27.6466 24.9618C27.8017 24.7776 27.7193 24.6371 27.6224 24.4917C27.5884 24.482 27.5545 24.4723 27.54 24.482C27.2928 24.6322 27.1475 24.4045 27.0554 24.293C26.9439 24.1573 26.847 24.0556 26.658 24.041C26.7356 23.8278 26.6192 23.8084 26.469 23.8084C26.3672 23.8084 26.2413 23.3384 26.188 23.1494C26.154 23.0331 26.1153 22.9071 26.125 22.7859C26.154 22.4806 26.1976 22.1802 26.2461 21.8749C26.2413 21.87 26.2364 21.87 26.2316 21.87C26.1298 21.8167 26.0474 21.7246 25.9602 21.652C25.8342 21.3612 25.8245 21.3515 25.5774 21.366C25.4174 21.0704 25.2914 21.3418 25.1412 21.4C25.1121 21.3563 25.0928 21.303 25.0588 21.2837C24.9425 21.2207 24.9377 21.0026 24.7632 21.0414C24.6178 21.0753 24.5112 21.0753 24.4482 20.9202C24.4385 20.8911 24.3949 20.8717 24.3658 20.8572C24.2399 20.7894 24.1139 20.7215 23.954 20.6391C23.7262 20.707 23.4548 20.7894 23.2367 20.8524C23.1059 20.8475 22.9799 20.8039 22.946 20.8475C22.8006 21.022 22.6746 21.211 22.5534 21.4048C22.4711 21.5405 22.2094 21.589 22.1076 21.4823C22.0155 21.5211 21.9332 21.5841 21.8411 21.5938C21.7248 21.6083 21.6957 21.6665 21.6472 21.7634C21.5891 21.8942 21.5116 22.0639 21.4001 22.1075C21.1626 22.1947 21.1966 22.4661 21.0173 22.5921C20.9155 22.6648 20.9204 22.8683 20.8477 23.004C20.804 23.0864 20.7168 23.1639 20.6296 23.2027C20.4745 23.2754 20.4309 23.3384 20.489 23.5031C20.5084 23.5564 20.5424 23.6194 20.5327 23.6679C20.5084 23.8569 20.4648 24.041 20.4357 24.23C20.3873 24.545 20.3388 24.8649 20.3097 25.1798C20.3001 25.2962 20.3388 25.4221 20.3727 25.5433C20.4261 25.7323 20.552 26.2023 20.6538 26.2023C20.804 26.2023 20.9203 26.2217 20.8428 26.435C21.0318 26.4543 21.1287 26.5513 21.2402 26.6869C21.3371 26.8033 21.4825 27.031 21.7248 26.8759C21.7539 26.8566 21.8702 26.9002 21.8798 26.9341C21.938 27.1473 22.5534 27.6271 22.7473 27.6174C22.9896 27.6077 23.6487 27.4914 24.0121 27.472C23.9927 28.0099 23.9685 28.9937 23.9249 29.4056C23.8473 30.1712 23.6826 30.6607 23.5517 30.9369C18.507 33.452 13.7773 36.1706 13.7773 36.1706H14.9355C16.1373 35.497 23.513 31.9788 28.7176 30.7721C33.9222 29.5655 41.0991 30.2439 41.0991 30.2439L41.8696 27.6901C41.8696 27.6901 40.5224 27.3363 38.4726 27.1715C38.366 26.9147 38.2739 26.5997 38.24 26.2072C38.1963 25.7371 38.1721 24.6516 38.1576 24.012C38.2351 24.0168 38.3126 24.041 38.3902 24.0701C38.4386 24.0895 38.4968 24.0604 38.5549 24.0556C38.6519 24.0507 38.773 24.0071 38.8409 24.0507C39.025 24.1719 39.1704 24.0846 39.34 23.9829C39.3788 24.0604 39.403 24.1137 39.4127 24.1331C39.5387 24.1525 39.6598 24.1283 39.7277 24.1816C39.8343 24.2736 39.8973 24.264 39.9942 24.1816C40.0572 24.1331 40.1444 24.1186 40.2171 24.0846C40.2801 24.0604 40.3819 24.0459 40.3964 23.9974C40.4643 23.7745 40.6824 23.7697 40.818 23.6582C40.9004 23.5903 40.9683 23.5031 41.041 23.4256C41.0749 23.3917 41.0991 23.3432 41.1427 23.3238C41.4335 23.2027 41.5837 22.9943 41.5498 22.6551C41.5353 22.5145 41.5692 22.4079 41.7146 22.3401C41.763 22.3158 41.7969 22.2044 41.8066 22.1269C41.8309 21.9427 41.8018 21.7392 42.015 21.6471C42.0489 21.6326 42.0828 21.5647 42.0828 21.5211C42.0828 21.3612 42.141 21.2788 42.3058 21.3079C42.3155 21.211 42.2961 21.1092 42.3348 21.0607C42.5287 20.8184 42.3736 20.6343 42.2525 20.4308Z" fill="white"/>
<path d="M22.5191 13.7287C22.4997 13.69 22.2914 13.6851 22.1799 13.6463C22.1266 13.627 21.9473 13.4816 21.9085 13.4477C21.9085 13.4477 21.8504 13.3992 21.831 13.3992C21.8068 13.3992 21.6323 13.6851 21.6759 13.7239C21.7195 13.7578 21.8504 13.7772 22.02 13.7772C22.1702 13.782 22.4077 13.7966 22.4997 13.7772C22.5191 13.7627 22.5288 13.7481 22.5191 13.7287Z" fill="white"/>
<path d="M21.6129 13.816C21.5984 13.7869 21.5887 13.753 21.579 13.7239C21.5741 13.7045 21.5693 13.6851 21.5644 13.6706C21.516 13.5688 21.4239 13.4816 21.3754 13.438C21.3657 13.4428 21.3512 13.4477 21.3415 13.4477C21.2979 13.4525 21.264 13.4331 21.2591 13.4089C21.2543 13.3798 21.2882 13.3556 21.3318 13.3507C21.3609 13.3459 21.3851 13.3556 21.3997 13.3701L21.7244 13.2732C21.6759 13.2538 21.5208 13.1957 21.3173 13.2102C21.0605 13.2247 20.8036 13.3507 20.6292 13.4525C20.6146 13.4573 20.5952 13.4622 20.5807 13.4622C20.4305 13.4864 17.7652 13.7481 17.5859 13.7142C17.4017 13.6803 16.4907 13.4864 16.4277 13.3411C16.3647 13.2005 17.0964 11.4026 17.1497 11.296C17.4066 10.7436 17.6828 9.95853 17.6828 9.95853C17.6828 9.95853 18.0608 8.1752 17.7603 8.10251C17.7022 8.08797 17.5616 8.66949 17.4114 8.77126C17.2757 8.86333 17.237 8.24789 17.0576 8.39812C16.9607 8.4805 16.9801 9.04264 16.8638 8.8488C16.5197 8.27212 16.5779 9.06202 16.5004 9.12017C15.914 9.54662 15.41 10.0506 15.3082 10.2493C15.0611 10.6515 14.5087 12.1925 14.3972 12.1877C14.1597 12.1829 12.0614 9.91492 11.916 9.82285C11.7755 9.72593 10.7724 8.52411 10.5882 7.51614C10.5398 7.25446 10.312 7.25931 10.3944 8.58227C10.4041 8.74704 9.91948 7.91836 9.85648 8.19458C9.78379 8.51442 10.0939 8.81487 9.98733 9.06202C9.96795 9.11048 9.60449 8.89726 9.60449 9.06687C9.60449 10.4238 11.1019 13.3847 12.2262 13.8111C13.3505 14.2376 10.4089 14.6689 10.2587 14.7319C10.1085 14.7949 9.99702 14.9596 10.1957 15.0032C10.6222 15.0711 10.1618 15.3279 10.3217 15.4394C10.4041 15.4587 10.4962 15.4636 10.5495 15.5218C10.6028 15.5993 10.3895 15.8755 10.4768 15.9143C10.564 15.953 11.8385 15.5072 12.3522 15.4491C12.6042 15.42 13.4038 15.6284 14.0822 15.4491C14.7606 15.2697 16.2048 14.4314 16.51 14.3781C16.8153 14.3248 20.8327 14.0195 20.8327 14.0195C21.1864 14.0534 21.6274 13.9468 21.7244 13.9177C21.6904 13.9226 21.6468 13.8838 21.6129 13.816Z" fill="white"/>
</svg>
