<svg width="100" height="100" viewBox="0 0 100 100" fill="none" xmlns="http://www.w3.org/2000/svg">
<g clip-path="url(#clip0_3002_45878)">
<path d="M50.0017 16.1407C31.3534 16.1407 15.994 31.4523 15.9326 50.1006L17.7203 50.1075C17.7886 33.3288 30.8246 19.607 47.327 18.4504C48.2072 18.3788 49.1011 18.3378 50.0017 18.3378C67.6061 18.3378 81.8771 32.6089 81.8771 50.2132C81.8771 60.5643 76.9404 69.7588 69.2982 75.5825C65.4123 78.5405 60.8304 80.6284 55.8391 81.5496C54.6689 81.7645 53.4817 81.9215 52.2705 82.0033C51.5234 82.0545 50.766 82.0852 50.0052 82.0852C49.9949 82.0852 49.9881 82.0852 49.9779 82.0852V82.1125V82.1262C49.0431 82.1023 47.5897 81.9726 47.5726 81.2596C47.559 80.6694 48.0059 80.1951 48.4426 79.8574C49.026 79.407 49.7015 79.0829 50.377 78.7929C51.0252 78.5166 51.6871 78.2641 52.349 78.0321C52.5605 77.9571 52.772 77.8718 52.9358 77.7217C53.1883 77.4965 53.2701 77.1178 53.1064 76.8142C52.9153 76.4628 52.5093 76.2546 52.1579 76.1045C50.7318 75.4938 43.7584 75.6201 42.8815 75.6371L42.7928 75.6405C42.8201 75.644 50.7796 76.5344 50.7933 77.0223C50.8035 77.5136 45.0957 78.6326 45.0002 82.1739C44.9729 83.1394 46.0203 83.4362 46.4229 83.5761C47.8251 84.0538 48.4494 84.2516 49.8994 84.2858H49.9779H50.0052H50.7284C51.2334 84.2858 51.7315 84.2653 52.2262 84.2312C52.8471 84.1936 53.4578 84.1254 54.0651 84.0367C70.871 82.0033 84.0743 67.531 84.0743 50.2132C84.0709 31.5172 68.691 16.1407 50.0017 16.1407Z" fill="white"/>
<path d="M48.4121 62.9866L49.5209 62.4782C49.5209 62.4782 37.6618 49.913 17.6796 53.0006L16.0352 53.1814C16.8028 60.1037 19.6788 66.6303 24.2676 71.8706C28.8563 77.111 34.9461 80.8195 41.7081 82.4946L42.2335 80.3657C30.4086 77.4521 21.3744 68.0188 18.7816 56.3543C22.224 55.5969 33.7793 54.0753 48.4121 62.9866Z" fill="white"/>
<path d="M79.9084 47.0744C79.8504 46.9755 79.8402 46.7674 79.8982 46.6923C80.0995 46.4433 80.0483 46.2215 79.8811 46.01C79.7242 45.8087 79.6048 45.6108 79.615 45.3311C79.6184 45.2253 79.5468 45.0615 79.4649 45.0206C79.1783 44.8705 79.1851 44.6214 79.1919 44.3519C79.1954 44.1643 79.1271 43.9698 79.1612 43.7924C79.267 43.2465 78.6529 43.2772 78.5471 42.9053C78.5335 42.8576 78.4311 42.8337 78.3697 42.803C78.3527 42.7928 78.3254 42.803 78.3083 42.7962C78.0524 42.6802 77.7863 42.5812 77.5407 42.4379C77.3667 42.3356 77.2234 42.1787 77.0631 42.0456C76.8447 41.5202 76.8242 41.4997 76.3978 41.527C76.118 40.9914 75.8928 41.4827 75.6336 41.5884C75.5824 41.5134 75.5517 41.4144 75.4868 41.3769C75.289 41.2575 75.2719 40.8686 74.9683 40.9436C74.7124 41.0084 74.5316 41.005 74.4156 40.7219C74.3951 40.6707 74.3235 40.6366 74.2689 40.6059C74.0471 40.4796 73.8254 40.3602 73.5524 40.2101C73.1567 40.3329 72.6824 40.4762 72.3003 40.5956C72.0717 40.5854 71.8534 40.5103 71.7954 40.582C71.5395 40.8959 71.3178 41.2404 71.1096 41.5918C70.9664 41.8341 70.5058 41.9228 70.3318 41.7317C70.1714 41.8068 70.0281 41.916 69.8712 41.9364C69.6699 41.9637 69.6119 42.0695 69.5335 42.2469C69.4311 42.4789 69.2912 42.7893 69.0968 42.8678C68.6839 43.0282 68.7419 43.516 68.4247 43.748C68.3223 43.8231 68.2814 43.9869 68.2404 44.154C68.3018 44.1813 68.3769 44.2018 68.3905 44.2461C68.4963 44.618 69.1104 44.5873 69.0046 45.1332C68.9705 45.3106 69.0388 45.5051 69.0353 45.6927C69.0319 45.9622 69.0217 46.2147 69.3083 46.3614C69.3902 46.4023 69.4618 46.5661 69.4584 46.6719C69.4482 46.9516 69.5642 47.1495 69.7245 47.3508C69.8917 47.5623 69.9429 47.7841 69.7416 48.0331C69.6802 48.1082 69.6938 48.3163 69.7518 48.4152C69.9326 48.7257 70.168 49.002 69.8576 49.3807C69.7962 49.4558 69.8269 49.6127 69.8132 49.7594C69.5607 49.7083 69.4755 49.8379 69.4755 50.0801C69.4755 50.1449 69.4277 50.2507 69.3765 50.2746C69.049 50.4179 69.0933 50.7215 69.0592 51.0013C69.0456 51.1105 69.0046 51.264 68.9364 51.3117C69.1002 51.5164 69.3322 51.7382 69.6767 51.513C69.7313 51.4789 69.9292 51.5574 69.9463 51.6154C70.0486 52.0043 71.1199 52.8675 71.4611 52.8504C71.983 52.8265 72.4914 52.5161 73.0236 52.7378C72.9929 53.7409 72.9451 55.2215 72.8769 55.88C72.8223 56.4122 72.72 56.8455 72.5903 57.1969C69.9292 57.0946 66.7222 57.2447 63.4299 58.0362C63.3412 57.8212 63.2798 57.579 63.2559 57.3061C63.1877 56.5794 63.1468 54.8974 63.1297 53.9387C63.1911 53.9387 63.2628 53.9149 63.3276 53.9115C63.4743 53.9012 64.2556 53.9558 64.5149 53.7989C64.5729 53.9149 64.6138 53.9967 64.6274 54.024C64.8219 54.0513 65.0061 54.0172 65.1017 54.1025C65.262 54.239 65.3575 54.2253 65.5077 54.1025C65.5998 54.0274 65.7328 54.007 65.8454 53.9558C65.9409 53.9149 66.0979 53.8944 66.1184 53.8262C66.2241 53.4918 66.5482 53.485 66.7563 53.311C66.8792 53.2086 66.9815 53.0756 67.0941 52.9596C67.1419 52.9084 67.1862 52.8334 67.2442 52.8095C67.6843 52.6287 67.9129 52.3148 67.8583 51.7962C67.8344 51.5847 67.8856 51.4175 68.1074 51.322C68.1142 51.3186 68.1176 51.3152 68.121 51.3117C68.1892 51.264 68.2302 51.107 68.2438 51.0013C68.278 50.7215 68.2336 50.4179 68.5611 50.2746C68.6123 50.2507 68.6635 50.1484 68.6601 50.0801C68.6601 49.8379 68.7488 49.7083 68.9978 49.7594C69.0115 49.6127 68.9808 49.4558 69.0422 49.3807C69.3492 49.002 69.1172 48.7257 68.933 48.4152C68.8784 48.3163 68.8648 48.1082 68.9228 48.0331C69.1275 47.7841 69.0729 47.5623 68.9057 47.3508C68.7488 47.1495 68.6294 46.9516 68.6396 46.6719C68.643 46.5661 68.5714 46.4023 68.4895 46.3614C68.2029 46.2113 68.2097 45.9622 68.2165 45.6927C68.22 45.5051 68.1517 45.3106 68.1858 45.1332C68.2916 44.5873 67.6775 44.618 67.5717 44.2461C67.5615 44.2052 67.483 44.1813 67.4216 44.154C67.4114 44.1506 67.4011 44.1472 67.3909 44.1404C67.3739 44.1336 67.3466 44.1404 67.3295 44.1336C67.0702 44.0176 66.8075 43.9186 66.5619 43.7753C66.3879 43.673 66.2446 43.516 66.0842 43.383C65.8659 42.8576 65.8454 42.8371 65.419 42.8644C65.1392 42.3288 64.914 42.8201 64.6547 42.9258C64.6036 42.8508 64.5729 42.7518 64.508 42.7143C64.3102 42.5949 64.2931 42.206 63.9895 42.281C63.7336 42.3458 63.5528 42.3424 63.4368 42.0592C63.4163 42.0081 63.3446 41.974 63.2901 41.9433C63.0683 41.817 62.8465 41.6976 62.5736 41.5475C62.1779 41.6703 61.7036 41.8136 61.3215 41.933C61.0929 41.9228 60.8746 41.8477 60.8166 41.9194C60.5607 42.2332 60.339 42.5778 60.1308 42.9292C59.9875 43.1715 59.527 43.2602 59.353 43.0691C59.1926 43.1442 59.0459 43.2533 58.889 43.2738C58.6877 43.3011 58.6297 43.4069 58.5512 43.5843C58.4489 43.8163 58.309 44.1267 58.1145 44.2052C57.7017 44.3656 57.7563 44.8534 57.4424 45.0854C57.2684 45.2151 57.2718 45.5903 57.149 45.8258C57.0706 45.9759 56.9204 46.1123 56.7703 46.184C56.4974 46.3136 56.4257 46.4262 56.5247 46.7333C56.5588 46.8322 56.6168 46.9414 56.6032 47.0369C56.5588 47.3781 56.4803 47.7124 56.4326 48.0536C56.4292 48.0775 56.4257 48.1013 56.4223 48.1286C56.3439 48.6779 56.262 49.2238 56.2142 49.7765C56.1972 49.9914 56.2654 50.22 56.3234 50.4349C56.4155 50.7795 56.6373 51.6256 56.8113 51.6256C57.0706 51.629 57.2821 51.6597 57.1422 52.0487C57.4731 52.0794 57.6437 52.2602 57.8382 52.5058C58.0019 52.7139 58.2578 53.1268 58.6877 52.8504C58.715 52.8334 58.7764 52.8436 58.8344 52.8641C58.8924 52.8879 58.9504 52.9221 58.9572 52.9528C59.0596 53.3417 60.1308 54.2049 60.472 54.1878C60.8473 54.1707 61.7992 54.0036 62.4508 53.9387C62.4201 54.9247 62.3689 56.634 62.2973 57.3573C62.2563 57.753 62.1881 58.0942 62.1028 58.3876C61.0998 58.681 60.0967 59.0358 59.1005 59.4623C57.2343 60.2674 55.2521 61.192 53.2699 62.1575C53.1369 61.8812 52.997 61.4138 52.9254 60.6325C52.8674 60.0081 52.8332 58.5275 52.8196 57.7394C52.9595 57.7325 53.6179 57.7735 53.8397 57.6472C53.8909 57.7428 53.925 57.811 53.9352 57.8349C54.1024 57.8554 54.2627 57.8315 54.348 57.8997C54.4879 58.0157 54.5698 58.0021 54.6994 57.8997C54.7779 57.8349 54.8939 57.8178 54.9928 57.7803C55.0747 57.7462 55.2112 57.7291 55.2317 57.6711C55.3238 57.3914 55.6035 57.388 55.7843 57.2413C55.8901 57.156 55.9788 57.0468 56.0743 56.9479C56.1153 56.9035 56.1528 56.8421 56.204 56.8216C56.5861 56.6681 56.784 56.4054 56.7362 55.9755C56.7157 55.7981 56.7601 55.6582 56.9511 55.5764C57.016 55.5491 57.0603 55.4024 57.0706 55.3068C57.1013 55.0714 57.0603 54.819 57.3469 54.6996C57.3913 54.6825 57.4356 54.5938 57.4356 54.5392C57.4356 54.3379 57.5107 54.2287 57.729 54.2731C57.7392 54.1503 57.7154 54.0206 57.7665 53.9558C58.0019 53.6795 57.8723 53.4679 57.7324 53.2428C57.6812 53.2257 57.6301 53.2155 57.6062 53.2291C57.2343 53.4611 57.016 53.1165 56.8727 52.9391C56.7055 52.7344 56.5588 52.5809 56.2722 52.557C56.3916 52.2329 56.2108 52.2022 55.9856 52.2022C55.8355 52.2022 55.6445 51.4926 55.5626 51.206C55.5114 51.0286 55.4534 50.8375 55.4705 50.6567C55.5114 50.1961 55.5831 49.7355 55.6513 49.2784C55.6445 49.275 55.6376 49.2716 55.6308 49.2681C55.4807 49.1829 55.3545 49.0498 55.218 48.9406C55.0304 48.5005 55.0099 48.4835 54.6414 48.5073C54.3992 48.0604 54.2047 48.4698 53.9796 48.5585C53.9352 48.4971 53.9079 48.4152 53.8533 48.3811C53.6827 48.2822 53.6657 47.9546 53.4064 48.0161C53.1846 48.0706 53.0277 48.0672 52.9288 47.8318C52.9117 47.7875 52.8503 47.7602 52.8025 47.7329C52.6115 47.6271 52.417 47.5282 52.1816 47.402C51.8404 47.5043 51.4276 47.6237 51.0967 47.7227C50.8988 47.7124 50.7078 47.651 50.66 47.7124C50.4382 47.9751 50.2472 48.2651 50.0664 48.5585C49.9401 48.7598 49.541 48.8349 49.3943 48.6745C49.2578 48.7359 49.1316 48.828 48.9951 48.8451C48.8211 48.869 48.7699 48.9577 48.7017 49.1044C48.6096 49.2988 48.4936 49.5581 48.323 49.623C47.9648 49.7594 48.0125 50.1654 47.743 50.3565C47.5929 50.4656 47.5963 50.7795 47.4871 50.9774C47.4189 51.1036 47.2892 51.2196 47.1596 51.2776C46.9242 51.3868 46.8628 51.4823 46.9481 51.7348C46.9754 51.8167 47.0265 51.9088 47.0163 51.9873C46.9788 52.2704 46.9105 52.5502 46.8696 52.8368C46.798 53.3144 46.7229 53.7955 46.6785 54.2765C46.6615 54.4573 46.7229 54.6484 46.7707 54.8258C46.8525 55.1124 47.0436 55.822 47.1937 55.822C47.4189 55.8254 47.5997 55.8493 47.4803 56.1768C47.7669 56.2007 47.9136 56.3542 48.0807 56.5589C48.224 56.7329 48.4458 57.0775 48.8143 56.8489C48.862 56.8182 49.0326 56.8864 49.0463 56.9342C49.135 57.2583 50.0629 57.9816 50.3563 57.9679C50.7214 57.9509 51.721 57.7769 52.2669 57.7428C52.243 58.5548 52.1987 60.0491 52.1373 60.6734C52.0213 61.8334 51.7688 62.5703 51.5709 62.9934C43.9287 66.8042 36.7744 70.9153 36.7744 70.9153H38.5246C40.3465 69.8918 51.5095 64.5696 59.3905 62.7443C67.2715 60.9191 78.1411 61.9426 78.1411 61.9426L79.3079 58.0771C79.3079 58.0771 77.2678 57.5415 74.1631 57.2958C73.9959 56.9069 73.8629 56.4259 73.8083 55.8356C73.7435 55.1226 73.7025 53.4782 73.6821 52.5127C73.7947 52.5229 73.9141 52.557 74.0369 52.6014C74.1085 52.6252 74.2006 52.5877 74.2859 52.5809C74.4326 52.5707 74.6169 52.5058 74.7192 52.5741C74.999 52.7583 75.2139 52.6252 75.4732 52.4683C75.5312 52.5843 75.5721 52.6628 75.5858 52.6935C75.7803 52.7208 75.9645 52.6867 76.06 52.7719C76.2204 52.9084 76.3159 52.8948 76.466 52.7719C76.5581 52.6969 76.6912 52.6764 76.8038 52.6287C76.8993 52.5877 77.0562 52.5672 77.0767 52.499C77.1825 52.1647 77.5066 52.1578 77.7147 51.9838C77.8375 51.8815 77.9399 51.7484 78.049 51.6324C78.0968 51.5813 78.1411 51.5062 78.1991 51.4823C78.6393 51.3015 78.8678 50.9876 78.8132 50.4691C78.7894 50.2575 78.8405 50.0904 79.0623 49.9948C79.1374 49.9607 79.1851 49.7901 79.1988 49.6741C79.2329 49.3944 79.1885 49.0907 79.5161 48.9474C79.5672 48.9236 79.6184 48.8212 79.6184 48.753C79.6184 48.5107 79.7071 48.3811 79.9562 48.4323C79.9698 48.2856 79.9391 48.1286 80.0005 48.0536C80.3246 47.6612 80.0892 47.3849 79.9084 47.0744Z" fill="white"/>
<path d="M11.1868 75.0094L9.52528 72.0446C8.61095 70.4104 9.09541 69.2641 10.037 68.7353C10.8456 68.2815 11.6132 68.4317 12.0977 68.8172C12.0022 68.2406 12.125 67.2853 13.0871 66.7463C14.346 66.0435 15.7448 66.5484 16.5499 67.9915L18.2626 71.0484L11.1868 75.0094ZM12.4662 70.6288C12.0022 69.7997 11.4699 69.6667 10.9104 69.984C10.3475 70.2978 10.2486 70.8915 10.6273 71.567L11.4972 73.1227L13.2952 72.1163L12.4662 70.6288ZM16.4851 70.3251L15.6424 68.8206C15.1682 67.9711 14.5405 67.7186 13.8172 68.1246C13.1826 68.4794 12.9984 69.1345 13.5374 70.0931L14.3392 71.526L16.4851 70.3251Z" fill="white"/>
<path d="M6.56749 65.5249L11.1971 64.0715C12.7972 63.57 12.9883 62.5772 12.7119 61.6936C12.3878 60.6632 11.6509 60.1481 10.1191 60.6291L5.48939 62.0825L5.03223 60.6291L9.58342 59.203C12.1899 58.3842 13.3397 59.6704 13.8719 61.3592C14.4041 63.0582 14.138 64.7504 11.6236 65.5419L7.02806 66.9817L6.56749 65.5249Z" fill="white"/>
<path d="M9.44656 50.1825C10.9375 50.3872 12.0974 51.3834 12.2783 53.3315C12.5103 55.8391 10.8146 57.2208 8.51516 57.4323C6.31121 57.637 4.21303 56.5828 3.97762 54.0275C3.78656 51.9736 4.89195 50.8239 6.22592 50.4793L6.3658 51.9941C5.67323 52.2704 5.08983 52.8197 5.19559 53.9729C5.33888 55.5252 6.79567 56.0131 8.32411 55.8732C9.76043 55.7401 11.224 55.0407 11.0705 53.3827C10.9613 52.2056 10.1767 51.8542 9.58302 51.6973L9.44656 50.1825Z" fill="white"/>
<path d="M3.87598 47.9615L4.03633 46.457L7.7653 46.8527C7.19555 46.2386 5.49653 44.2428 4.40138 43.0077L4.59584 41.1791L7.61178 44.8569L12.6747 41.9058L12.4803 43.7242L8.47834 46.01L9.24256 47.0096L12.0981 47.3133L11.9378 48.8178L3.87598 47.9615Z" fill="white"/>
<path d="M5.58367 37.6835L5.20117 39.1599L13.0525 41.1939L13.435 39.7175L5.58367 37.6835Z" fill="white"/>
<path d="M13.8345 37.9072L6.40723 34.6559L7.17827 32.8955C9.30034 32.6601 13.3841 32.1585 14.3496 32.1449L14.353 32.1347C13.4831 31.8413 12.2378 31.2988 11.0267 30.7666L8.58047 29.6953L9.13999 28.4193L16.5672 31.6707L15.844 33.3253C13.9607 33.5369 9.41634 34.0145 8.38942 34.052L8.38601 34.0623C9.12975 34.325 10.5593 34.9391 11.9035 35.5259L14.4042 36.621L13.8345 37.9072Z" fill="white"/>
<path d="M21.4693 24.6972L20.804 25.6048C20.5891 25.5195 20.3162 25.3762 20.0023 25.1749C20.2411 25.8606 20.1388 26.7306 19.4052 27.7302C18.0167 29.6203 15.8196 29.6032 13.9602 28.2386C12.0053 26.8023 11.34 24.5983 12.8309 22.5684C14.025 20.9444 15.6456 20.6373 16.9045 21.2992L16.0038 22.5172C15.3419 22.292 14.5231 22.3159 13.793 23.3087C12.7661 24.7075 13.5781 26.0142 14.8268 26.9319C16.0345 27.8189 17.5561 28.1635 18.5489 26.8159C19.4974 25.5229 18.8116 24.5949 18.0576 24.0422L17.9928 23.9944L16.8396 25.5638L15.8298 24.8201L17.8632 22.0532L21.4693 24.6972Z" fill="white"/>
<path d="M17.1406 17.5293L18.287 16.5262L20.4261 18.9656L23.1316 16.5944L20.9924 14.1551L22.1285 13.1589L27.4712 19.2556L26.3351 20.2518L23.9572 17.5395L21.2517 19.9072L23.6297 22.6229L22.4867 23.6259L17.1406 17.5293Z" fill="white"/>
<path d="M29.0643 15.8371L29.4499 17.9864L28.1398 18.72L26.6182 10.276L28.2728 9.34805L34.7823 14.9944L33.3835 15.7791L31.7323 14.3428L29.0643 15.8371ZM30.8077 13.408C29.3509 12.1013 28.4741 11.3302 27.9624 10.8253L27.9521 10.8321C28.15 11.5929 28.4195 12.9337 28.7436 14.5679L30.8077 13.408Z" fill="white"/>
<path d="M41.1587 9.70628C40.7664 8.34502 40.3604 6.8507 40.1489 5.98754L40.0909 6.0046C40.1659 7.5808 40.0431 10.6991 39.9476 13.3738L38.6852 13.7389C37.4877 11.8284 35.5772 8.88066 34.8027 7.50574L34.7584 7.51939C35.0893 8.41325 35.5943 10.044 35.9832 11.3848L36.8156 14.2779L35.4646 14.6669L33.2197 6.87799L35.393 6.25024C36.7269 8.21879 38.3407 10.7298 38.8968 11.7635L38.9207 11.7567C38.832 10.7707 38.9787 7.5228 39.1117 5.17897L41.2065 4.5751L43.4514 12.364L42.0458 12.77L41.1587 9.70628Z" fill="white"/>
<path d="M45.8263 9.87685C46.0787 10.7298 46.7099 11.1016 47.7266 11.0402C48.7671 10.9788 49.1731 10.508 49.1322 9.85297C49.0913 9.15016 48.6819 8.82264 47.1875 8.57358C45.0621 8.1983 44.4343 7.48525 44.3661 6.37304C44.2842 5.03907 45.2224 4.00874 47.1022 3.89616C49.1731 3.76993 50.0738 4.86849 50.2581 5.99435L48.7262 6.08646C48.5863 5.52012 48.2145 4.99131 47.1261 5.05613C46.3176 5.1039 45.8706 5.47236 45.9116 6.11717C45.9491 6.74833 46.3517 6.98374 47.7163 7.21573C50.0772 7.62513 50.6095 8.48488 50.6777 9.58344C50.763 10.9993 49.7599 12.0808 47.6788 12.207C45.6318 12.3299 44.564 11.3507 44.291 9.96896L45.8263 9.87685Z" fill="white"/>
<path d="M53.0351 3.90302L54.5465 4.10772L54.1029 7.32494L57.6682 7.81622L58.1083 4.599L59.606 4.8037L58.5006 12.8382L57.0029 12.6301L57.4942 9.05808L53.9323 8.56679L53.4411 12.1422L51.9297 11.9341L53.0351 3.90302Z" fill="white"/>
<path d="M62.6262 5.66792L60.2793 13.4304L61.7391 13.8718L64.086 6.10927L62.6262 5.66792Z" fill="white"/>
<path d="M66.3337 12.0091L64.9077 15.0421L63.5498 14.4042L66.999 7.06561L70.1071 8.52582C71.6764 9.26274 72.1097 10.5148 71.5741 11.6612C71.1203 12.6267 70.322 12.9235 69.626 12.8552C70.0047 13.2032 70.3595 13.8583 69.7454 15.165L69.5851 15.5027C69.3497 16.0008 69.0733 16.5945 69.0256 16.9732L67.7087 16.3556C67.7325 15.9769 67.985 15.4106 68.333 14.6669L68.3944 14.5406C68.8072 13.6604 68.7629 13.1487 67.5347 12.5687L66.3337 12.0091ZM66.8591 10.8969L68.2818 11.5656C69.2371 12.0126 69.7864 11.8317 70.1105 11.1426C70.4209 10.4841 70.1685 9.91437 69.3121 9.51179L67.8383 8.81922L66.8591 10.8969Z" fill="white"/>
<path d="M76.7083 18.024L73.5354 15.7142L72.1571 17.6111L75.6541 20.1528L74.7636 21.0569L70.2158 17.751L74.982 11.1903L79.5024 14.4758L78.7587 15.4993L75.4425 13.0906L74.2723 14.701L77.4452 17.0073L76.7083 18.024Z" fill="white"/>
<path d="M84.7665 29.1086C83.3847 29.6988 81.8734 29.4395 80.7168 27.8565C79.2293 25.8231 79.9799 23.7659 81.8427 22.4046C83.6304 21.0979 85.9708 20.9274 87.4856 22.9982C88.7001 24.6632 88.3419 26.2189 87.3764 27.198L86.4791 25.9664C86.9329 25.3728 87.1512 24.6052 86.4689 23.6669C85.5477 22.408 84.0466 22.7355 82.8082 23.6431C81.6448 24.4926 80.7475 25.847 81.7267 27.1878C82.4261 28.1431 83.279 28.0407 83.8658 27.8735L84.7665 29.1086Z" fill="white"/>
<path d="M90.0786 36.6313C88.0179 37.5388 85.6946 37.1123 84.6472 34.731C83.6407 32.4485 84.8041 30.4902 86.9262 29.5554C89.0722 28.6104 91.3205 29.1836 92.3235 31.4694C93.2719 33.6153 92.3201 35.6453 90.0786 36.6313ZM87.5949 30.9815C86.0938 31.6434 85.1999 32.8682 85.8208 34.284C86.4895 35.8056 88.0077 35.8193 89.4236 35.195C90.894 34.5501 91.8015 33.3799 91.1533 31.9129C90.5085 30.4527 89.0858 30.3265 87.5949 30.9815Z" fill="white"/>
<path d="M94.8761 39.3505L90.1168 40.2818C88.4723 40.6025 88.1721 41.5681 88.3495 42.479C88.5576 43.5366 89.2331 44.1336 90.8093 43.8232L95.5686 42.8918L95.862 44.3861L91.1812 45.3004C88.503 45.8224 87.5 44.4202 87.1588 42.6837C86.8177 40.9369 87.2714 39.2822 89.8575 38.7773L94.5827 37.8527L94.8761 39.3505Z" fill="white"/>
<path d="M88.0388 47.5078L96.1449 47.6988L96.1006 49.6196C94.2242 50.6431 90.6385 52.656 89.7514 53.0347V53.0449C90.6658 52.9835 92.027 53.0176 93.3508 53.0483L96.0221 53.1097L95.988 54.5017L87.8818 54.3107L87.9228 52.5059C89.5843 51.595 93.6101 49.4285 94.5449 49.0055V48.9918C93.7602 49.0328 92.201 49.0089 90.7374 48.9714L88.0081 48.9065L88.0388 47.5078Z" fill="white"/>
<path d="M88.4 63.0787C87.0558 62.4032 86.2813 61.0794 86.7419 59.1791C87.3355 56.733 89.3894 55.9756 91.6342 56.5214C93.787 57.0434 95.428 58.722 94.8208 61.2159C94.3329 63.2186 92.9136 63.9487 91.5421 63.8429L91.9004 62.3622C92.6441 62.3247 93.3776 61.9972 93.6506 60.8713C94.019 59.3565 92.801 58.4217 91.3067 58.0601C89.9079 57.7189 88.2942 57.9066 87.9019 59.5237C87.6221 60.6734 88.2499 61.2603 88.7582 61.6014L88.4 63.0787Z" fill="white"/>
<path d="M85.4439 63.6582L84.8682 65.0665L92.3741 68.1351L92.9499 66.7267L85.4439 63.6582Z" fill="white"/>
<path d="M91.1539 70.8812L90.3966 72.2016L84.4534 68.783L82.4098 72.338L81.4102 71.5602L84.1259 66.8384L91.1539 70.8812Z" fill="white"/>
<path d="M70.0825 88.0421L69.7891 87.5576C74.6814 85.05 78.9494 81.4814 82.1291 77.2407L82.6238 77.5545C79.393 81.8669 75.0533 85.4935 70.0825 88.0421Z" fill="white"/>
<path d="M30.3773 88.0421L30.6707 87.5576C25.7783 85.05 21.5103 81.4814 18.3306 77.2407L17.8359 77.5545C21.0668 81.8669 25.4065 85.4935 30.3773 88.0421Z" fill="white"/>
<path d="M34.625 90.5223C34.4271 91.075 34.5363 91.6584 35.089 91.8562C35.5632 92.0268 35.7918 91.8631 35.9794 91.6618L36.8801 91.9825C36.5799 92.3953 35.9248 92.9548 34.8092 92.5556C33.6151 92.1292 33.4309 91.0238 33.7789 90.0617C34.1883 88.9188 35.0719 88.2842 36.2387 88.7004C37.484 89.1439 37.5693 90.222 37.2554 91.1023C37.2111 91.2251 37.1803 91.3104 37.1258 91.4127L34.625 90.5223ZM36.44 90.5291C36.6106 90.031 36.5389 89.5499 35.9897 89.3555C35.4438 89.161 35.0856 89.4544 34.8468 89.9628L36.44 90.5291Z" fill="white"/>
<path d="M38.6848 92.4602C38.6883 92.8252 38.91 93.0811 39.3467 93.1903C39.7902 93.2994 40.0052 93.1732 40.07 92.9037C40.1416 92.6137 39.9984 92.4533 39.4354 92.1565C38.313 91.5731 38.197 91.1501 38.3266 90.6213C38.4631 90.0652 38.9987 89.591 40.0905 89.8605C41.189 90.1334 41.4381 90.8396 41.346 91.3753L40.4623 91.1569C40.4692 90.9693 40.418 90.6417 39.8892 90.5121C39.473 90.4097 39.299 90.5701 39.2512 90.7714C39.1966 90.9863 39.3024 91.1296 39.9096 91.4469C41.073 92.0337 41.1686 92.5079 41.0287 93.0709C40.8717 93.7088 40.2372 94.1353 39.1454 93.8658C38.04 93.5929 37.6989 92.9344 37.7773 92.235L38.6848 92.4602Z" fill="white"/>
<path d="M42.0935 90.42L42.7111 90.5224L42.8885 89.4443L43.8233 89.5978L43.6458 90.6759L44.4374 90.8055L44.3214 91.522L43.5299 91.3924L43.1955 93.4291C43.1443 93.7532 43.2126 93.9034 43.5435 93.9579C43.6186 93.9716 43.7311 93.9886 43.8267 93.9886L43.7175 94.6437C43.5094 94.6812 43.2364 94.6437 43.0283 94.6096C42.3255 94.4936 42.1311 94.0774 42.2402 93.4121L42.5951 91.2388L41.9775 91.1365L42.0935 90.42Z" fill="white"/>
<path d="M44.9239 93.5235L44.793 94.7859L45.8043 94.8908L45.9352 93.6284L44.9239 93.5235Z" fill="white"/>
<path d="M49.0702 95.1111V95.0496C49.0565 94.224 49.4625 93.4905 50.5201 92.6853C51.2502 92.1224 51.4686 91.9279 51.4618 91.4537C51.4549 90.9966 51.2195 90.7032 50.7317 90.71C50.196 90.7202 49.9879 91.0375 49.9197 91.5356L48.9951 91.5527C49.0565 90.6861 49.6092 89.9833 50.718 89.9628C51.9565 89.9423 52.4068 90.6895 52.417 91.423C52.4307 92.1634 52.1236 92.5045 51.2093 93.1971C50.5679 93.6816 50.2813 94.0091 50.1892 94.2922L52.6559 94.2479L52.5467 95.0531L49.0702 95.1111Z" fill="white"/>
<path d="M57.1765 91.9824C57.3403 93.3028 57.0946 94.6504 55.6447 94.8312C54.2118 95.0086 53.6318 93.8282 53.4646 92.4771C53.2974 91.1432 53.6113 89.8331 55.0237 89.6557C56.3952 89.4851 57.0059 90.6075 57.1765 91.9824ZM54.4404 92.3441C54.5563 93.2687 54.7883 94.1557 55.556 94.0602C56.3134 93.9646 56.3236 93.1015 56.1974 92.1019C56.078 91.1398 55.8357 90.321 55.1159 90.4097C54.396 90.5018 54.3073 91.2626 54.4404 92.3441Z" fill="white"/>
<path d="M58.6608 94.2889L58.6471 94.2309C58.4595 93.4257 58.7017 92.624 59.5615 91.6141C60.1585 90.9079 60.3291 90.6725 60.2199 90.2119C60.1141 89.765 59.8242 89.5296 59.3465 89.6388C58.8245 89.7616 58.6881 90.1164 58.729 90.6179L57.8283 90.8294C57.7055 89.9697 58.0978 89.1645 59.1759 88.9121C60.3803 88.6289 60.9773 89.2669 61.1445 89.9799C61.3151 90.7032 61.0865 91.1024 60.3393 91.9689C59.8173 92.5796 59.6058 92.9583 59.5751 93.2551L61.9769 92.6888L62.0418 93.4974L58.6608 94.2889Z" fill="white"/>
<path d="M65.9275 89.5057C66.371 90.7612 66.4153 92.1293 65.0404 92.6171C63.6792 93.0982 62.8604 92.0644 62.4066 90.7816C61.9597 89.5125 61.987 88.1649 63.3278 87.6941C64.631 87.2301 65.4669 88.199 65.9275 89.5057ZM63.3312 90.4439C63.6417 91.3241 64.0579 92.1395 64.788 91.8836C65.5078 91.6311 65.3304 90.785 64.9961 89.8332C64.672 88.9189 64.2626 88.1717 63.5802 88.4105C62.8945 88.6527 62.9696 89.4135 63.3312 90.4439Z" fill="white"/>
<path d="M50.0292 36.9282C50.0019 36.8702 49.6812 36.8634 49.5174 36.8054C49.4389 36.7781 49.1626 36.5563 49.1046 36.5086L49.1012 36.5051C49.1012 36.5051 49.0125 36.4301 48.9818 36.4335C48.9477 36.4369 48.6781 36.8668 48.7464 36.9214C48.8146 36.9759 49.0091 36.9998 49.2718 37.0067C49.5038 37.0101 49.8586 37.0374 49.9985 37.0067C50.0258 36.9794 50.0394 36.9555 50.0292 36.9282Z" fill="white"/>
<path d="M48.6575 37.0646C48.6336 37.0203 48.6199 36.9691 48.6097 36.9282C48.6029 36.8975 48.596 36.8702 48.5858 36.8497C48.5108 36.6962 48.3743 36.5631 48.2992 36.4983C48.2822 36.5051 48.2651 36.5119 48.2446 36.5119C48.1798 36.5188 48.1218 36.4915 48.1184 36.4505C48.115 36.4096 48.1628 36.3721 48.2276 36.3652C48.2719 36.3618 48.3095 36.3721 48.3333 36.3925L48.8212 36.2492C48.7462 36.2185 48.5108 36.1333 48.2071 36.1503C47.8216 36.1742 47.4292 36.3652 47.1631 36.5154C47.1393 36.5222 47.1154 36.529 47.0915 36.5324C46.8629 36.5699 42.8303 36.9657 42.5539 36.9179C42.2776 36.8702 40.8959 36.5699 40.8003 36.355C40.7048 36.1401 41.8136 33.421 41.8921 33.2572C42.281 32.4247 42.6972 31.2341 42.6972 31.2341C42.6972 31.2341 43.267 28.532 42.8166 28.4228C42.7313 28.4024 42.5198 29.2792 42.2878 29.4327C42.0831 29.5692 42.0217 28.6412 41.7556 28.8629C41.6089 28.9858 41.6362 29.8387 41.4588 29.5453C40.9368 28.6753 41.0289 29.8694 40.9061 29.9547C40.0156 30.6029 39.2583 31.3671 39.1047 31.6639C38.726 32.278 37.897 34.6048 37.7264 34.6014C37.3648 34.5912 34.1851 31.1624 33.9701 31.0157C33.7552 30.8724 32.2404 29.0506 31.9606 27.5221C31.889 27.123 31.5444 27.1332 31.6707 29.1359C31.6877 29.3883 30.9508 28.1328 30.8553 28.5457C30.7427 29.0267 31.2135 29.4839 31.0565 29.8626C31.0258 29.9342 30.4766 29.6101 30.4766 29.8728C30.4766 31.9232 32.7453 36.413 34.4478 37.0612C36.1502 37.7095 31.6945 38.3611 31.4694 38.4566C31.2408 38.5521 31.0736 38.8012 31.3738 38.8694C32.0186 38.9684 31.3227 39.3641 31.5683 39.5279C31.6945 39.5586 31.8344 39.562 31.9129 39.6507C31.9948 39.7701 31.6672 40.1863 31.8037 40.2478C31.9402 40.3092 33.8644 39.6336 34.6422 39.5449C35.0243 39.504 36.2355 39.8145 37.2624 39.5449C38.2893 39.2754 40.4762 38.0029 40.9368 37.9244C41.3974 37.8425 47.4838 37.3785 47.4838 37.3785C48.0195 37.4297 48.6847 37.2659 48.8315 37.2216C48.7769 37.2216 48.712 37.1636 48.6575 37.0646Z" fill="white"/>
</g>
<defs>
<clipPath id="clip0_3002_45878">
<rect width="100" height="100" fill="white"/>
</clipPath>
</defs>
</svg>
